<?xml version="1.0" encoding="UTF-8" standalone="no"?>
<!DOCTYPE svg PUBLIC "-//W3C//DTD SVG 1.1//EN" "http://www.w3.org/Graphics/SVG/1.1/DTD/svg11.dtd">
<svg width="100%" height="100%" viewBox="0 0 254 257" version="1.1" xmlns="http://www.w3.org/2000/svg" xmlns:xlink="http://www.w3.org/1999/xlink" xml:space="preserve" xmlns:serif="http://www.serif.com/" style="fill-rule:evenodd;clip-rule:evenodd;stroke-linejoin:round;stroke-miterlimit:2;">
    <g transform="matrix(1,0,0,1,-1.04605,-0.0123937)">
        <g id="_1702062619456">
            <path d="M253.321,128.206C254.794,118.917 251.48,109.629 247.147,102.973C242.729,96.205 243.749,98.442 244.23,89.182C244.514,84.056 243.806,79.043 242.616,74.455C238.312,57.832 227.578,41.746 219.082,32.938C194.246,7.167 157.373,-0.677 121.747,0.059C71.508,1.079 34.663,22.234 16.397,58.993C4.418,83.093 12.149,92.722 8.949,100.481C4.39,111.526 -2.322,117.501 4.928,137.92C9.232,150.013 0.906,149.871 1.048,164.229C1.218,180.032 8.553,185.356 8.921,189.122C9.402,194.277 6.315,204.358 8.977,218.858C10.648,228.119 14.16,235.51 19.144,240.749C33.389,255.816 42.508,256.269 68.676,256.269C110.164,256.269 159.611,257.147 199.882,256.354C257.031,255.193 244.429,193.484 245.42,189.576C246.609,184.789 260.769,175.812 250.942,152.193C248.507,146.303 246.439,146.756 249.3,140.639C251.197,136.561 252.528,133.276 253.321,128.206Z" style="fill:rgb(2,2,2);"/>
            <path d="M116.196,72.161C114.894,60.324 134.802,61.74 134.887,71.142C134.972,81.195 117.357,82.328 116.196,72.161ZM84.96,44.295C93.456,38.093 112.09,50.582 101.328,57.803C93.767,62.901 74.963,51.573 84.96,44.295ZM148.113,55.764C146.13,44.974 161.678,40.302 170.712,45.173C171.873,57.492 156.977,61.938 148.113,55.764ZM124.551,28.775C136.02,23.14 139.645,40.585 131.517,44.889C120.812,50.553 114.554,33.675 124.551,28.775ZM109.145,17.929C84.988,20.534 73.009,23.904 56.555,36.025C42.876,46.107 33.163,56.104 26.791,76.353C21.466,93.231 25.346,92.863 40.639,92.892L145.791,92.665C169.154,92.807 192.49,93.005 215.882,92.892C224.718,92.863 233.639,97.253 226.219,73.889C223.33,64.827 219.252,57.435 214.07,50.95C189.941,20.619 147.971,13.709 109.145,17.929Z" style="fill:rgb(250,157,5);"/>
            <path d="M24.667,192.153C23.704,203.566 21.835,216.026 27.159,225.712C31.605,233.783 38.175,240.013 50.608,240.636C74.566,241.882 102.376,240.749 126.76,240.721C151.709,240.665 178.132,241.542 202.883,240.665C226.474,239.815 234.857,216.876 229.419,192.889L203.846,191.869C172.836,191.898 42.027,190.623 24.667,192.153Z" style="fill:rgb(250,157,5);"/>
            <path d="M84.96,44.295C74.963,51.573 93.767,62.901 101.328,57.803C112.09,50.582 93.456,38.093 84.96,44.295Z" style="fill:rgb(2,2,2);"/>
            <path d="M148.113,55.764C156.977,61.938 171.873,57.492 170.712,45.173C161.678,40.302 146.13,44.974 148.113,55.764Z" style="fill:rgb(2,2,2);"/>
            <path d="M124.551,28.775C114.554,33.675 120.812,50.553 131.517,44.889C139.645,40.585 136.02,23.14 124.551,28.775Z" style="fill:rgb(2,2,2);"/>
            <path d="M116.196,72.161C117.357,82.328 134.972,81.195 134.887,71.142C134.802,61.74 114.894,60.324 116.196,72.161Z" style="fill:rgb(2,2,2);"/>
            <path d="M39.648,139.478L213.872,139.478C226.587,139.449 233.667,138.855 237.49,128.66C240.011,121.919 237.094,109.204 222.877,109.175L39.648,108.836C25.969,108.836 18.181,109.515 18.068,124.185C17.955,139.421 26.253,139.478 39.648,139.478Z" style="fill:rgb(9,214,77);"/>
            <path d="M20.73,172.98C39.563,174.396 104.075,173.292 127.751,173.292C145.791,173.32 163.802,173.32 181.842,173.575C193.934,173.716 225.143,174.764 235.423,172.697C247.572,151.004 211.011,156.13 192.858,156.158L62.672,156.3C50.976,156.3 24.582,153.751 19.314,160.944C15.491,166.212 18.634,169.27 20.73,172.98Z" style="fill:rgb(194,0,25);"/>
        </g>
    </g>
</svg>
