<?xml version="1.0" encoding="UTF-8" standalone="no"?>
<!DOCTYPE svg PUBLIC "-//W3C//DTD SVG 1.1//EN" "http://www.w3.org/Graphics/SVG/1.1/DTD/svg11.dtd">
<svg width="100%" height="100%" viewBox="0 0 191 299" version="1.1" xmlns="http://www.w3.org/2000/svg" xmlns:xlink="http://www.w3.org/1999/xlink" xml:space="preserve" xmlns:serif="http://www.serif.com/" style="fill-rule:evenodd;clip-rule:evenodd;stroke-linejoin:round;stroke-miterlimit:2;">
    <g transform="matrix(1,0,0,1,-384.947,-331.743)">
        <path d="M486.677,418.088C489.197,422.761 526.409,420.212 534.282,420.241C552.747,420.326 572.684,416.871 574.836,429.02C576.62,439.017 568.493,440.744 566.51,443.746C565.179,445.729 563.961,461.106 563.423,464.703L546.007,593.558C543.146,613.807 544.704,623.152 529.44,625.956C514.94,628.646 499.364,629.553 484.184,629.723C468.835,629.893 453.542,629.213 438.476,627.344C417.916,624.795 416.84,623.266 413.866,602.96L391.38,443.18C390.078,440.659 386.962,440.291 385.603,435.93C383.337,428.652 387.246,421.855 392.683,420.127C397.327,418.655 456.148,420.326 464.842,420.184C462.973,411.122 446.208,335.083 447.793,333.582C448.501,332.931 465.295,329.645 467.787,333.837C470.364,338.17 476.057,369.237 477.614,376.741C480.644,390.533 483.675,404.297 486.677,418.088Z" style="fill:rgb(1,0,1);"/>
        <path d="M413.385,484.3C411.799,474.955 407.919,453.432 408.401,444.822C445.075,445.927 480.644,446.918 517.347,446.748C527.882,446.691 538.729,446.606 549.065,448.589C547.508,459.888 545.95,471.216 544.364,482.516C506.699,480.505 468.977,479.712 431.368,482.941C425.364,483.451 419.417,483.932 413.385,484.3Z" style="fill:rgb(230,230,230);"/>
        <path d="M414.688,495.458C454.364,491.805 497.183,487.387 536.661,493.589C546.262,495.09 543.288,493.079 540.994,510.043C539.295,522.475 537.567,534.879 535.84,547.312C496.334,553.514 461.982,554.109 422.334,548.275L414.688,495.458Z" style="fill:rgb(255,0,0);"/>
        <path d="M424.118,561.217C456.969,565.748 502.366,566.286 534.622,560.254C534.169,565.55 533.659,569.854 532.725,575.094C532.357,577.274 532.583,580.644 532.328,583.306C531.252,594.096 531.309,599.25 519.924,602.96L517.092,603.527C497.976,606.84 460.254,607.18 441.252,603.555C421.711,598.911 428.989,592.878 425.449,576.226C424.43,571.582 424.345,566.031 424.118,561.217Z" style="fill:rgb(230,230,230);"/>
    </g>
</svg>
