<?xml version="1.0" encoding="UTF-8" standalone="no"?>
<!DOCTYPE svg PUBLIC "-//W3C//DTD SVG 1.1//EN" "http://www.w3.org/Graphics/SVG/1.1/DTD/svg11.dtd">
<svg width="100%" height="100%" viewBox="0 0 256 298" version="1.1" xmlns="http://www.w3.org/2000/svg" xmlns:xlink="http://www.w3.org/1999/xlink" xml:space="preserve" xmlns:serif="http://www.serif.com/" style="fill-rule:evenodd;clip-rule:evenodd;">
    <g transform="matrix(1,0,0,1,0.00131783,-329.626)">
        <path d="M1.274,507.353C-6.145,491.55 20.702,478.834 32.823,468.073C55.139,448.306 100.819,421.402 125.853,405.316L133.925,400.105C142.052,394.838 150.69,389.372 159.554,383.765C183.229,368.812 202.43,355.756 225.114,339.416C239.218,329.249 256.748,320.951 255.36,347.006C255.02,353.462 247.091,384.756 245.788,390.533C241.625,409.168 237.292,427.745 233.101,446.38C222.254,493.816 210.162,542.497 198.069,589.65C182.918,648.782 155.901,626.579 113.874,604.631C86.121,590.131 62.275,569.826 38.458,549.747C22.769,536.55 11.611,525.279 1.274,507.353Z" style="fill-rule:nonzero;"/>
        <path d="M121.209,541.818C115.545,537.853 107.332,536.494 100.79,532.104C86.461,522.475 86.121,512.478 79.55,498.857C71.649,482.459 55.592,487.387 38.175,485.235C12.093,503.388 16.652,504.124 38.487,527.091C41.998,530.915 45.68,534.596 49.305,538.306C66.297,554.93 149.755,625.56 172.128,603.413C178.896,596.673 184.9,569.6 185.608,558.47C174.762,557.762 174.96,556.318 161.225,558.017C131.914,561.613 136.926,554.448 121.209,541.818Z" style="fill:rgb(226,111,10);"/>
        <path d="M52.901,473.51C69.752,475.578 85.243,470.82 92.889,486.651C99.233,499.819 99.544,509.448 113.393,518.737C119.708,522.985 127.638,524.288 133.103,528.139C138.484,531.934 141.458,538.674 148.056,541.903C163.972,549.747 177.396,538.646 193.849,543.8C202.997,517.095 209.369,476.852 215.741,448.277C218.827,435.052 236.499,367.396 235.678,361.024C234.007,348.195 202.77,373.994 198.182,377.223C180.652,389.57 161.621,401.21 143.582,412.934L74.623,457.311C66.976,462.409 59.67,466.799 52.901,473.51Z" style="fill:rgb(255,255,50);"/>
        <path d="M140.891,473.794C155.504,447.428 116.904,426.726 101.697,451.449C94.418,463.287 100.649,478.211 110.108,482.743C122.087,488.492 136.615,481.497 140.891,473.794Z"/>
        <g>
            <path d="M132.933,469.234C141.599,453.601 118.717,441.339 109.683,456.009C105.378,463.004 109.06,471.868 114.667,474.558C121.775,477.957 130.385,473.794 132.933,469.234Z" style="fill:rgb(153,0,0);"/>
            <path id="_1" serif:id="1" d="M132.933,469.234C141.599,453.601 118.717,441.339 109.683,456.009C105.378,463.004 109.06,471.868 114.667,474.558C121.775,477.957 130.385,473.794 132.933,469.234Z" style="fill:none;fill-rule:nonzero;stroke:rgb(43,42,41);stroke-width:0.22px;"/>
        </g>
        <path d="M202.09,442.982C216.703,416.644 178.104,395.914 162.896,420.665C155.618,432.503 161.848,447.428 171.307,451.959C183.286,457.708 197.814,450.685 202.09,442.982Z"/>
        <g>
            <path d="M194.133,438.45C202.798,422.818 179.916,410.527 170.882,425.197C166.577,432.22 170.287,441.084 175.866,443.746C182.975,447.173 191.584,443.01 194.133,438.45Z" style="fill:rgb(153,0,0);"/>
            <path id="_11" serif:id="1" d="M194.133,438.45C202.798,422.818 179.916,410.527 170.882,425.197C166.577,432.22 170.287,441.084 175.866,443.746C182.975,447.173 191.584,443.01 194.133,438.45Z" style="fill:none;fill-rule:nonzero;stroke:rgb(43,42,41);stroke-width:0.22px;"/>
        </g>
        <path d="M191.131,509.42C205.744,483.054 167.172,462.324 151.936,487.076C144.686,498.913 150.916,513.838 160.347,518.369C172.326,524.118 186.854,517.123 191.131,509.42Z"/>
        <g>
            <path d="M183.173,504.86C191.839,489.228 168.956,476.965 159.951,491.635C155.618,498.63 159.327,507.494 164.935,510.185C172.043,513.583 180.652,509.42 183.173,504.86Z" style="fill:rgb(153,0,0);"/>
            <path id="_12" serif:id="1" d="M183.173,504.86C191.839,489.228 168.956,476.965 159.951,491.635C155.618,498.63 159.327,507.494 164.935,510.185C172.043,513.583 180.652,509.42 183.173,504.86Z" style="fill:none;fill-rule:nonzero;stroke:rgb(43,42,41);stroke-width:0.22px;"/>
        </g>
    </g>
</svg>
