<?xml version="1.0" encoding="UTF-8" standalone="no"?>
<!DOCTYPE svg PUBLIC "-//W3C//DTD SVG 1.1//EN" "http://www.w3.org/Graphics/SVG/1.1/DTD/svg11.dtd">
<svg width="100%" height="100%" viewBox="0 0 284 230" version="1.1" xmlns="http://www.w3.org/2000/svg" xmlns:xlink="http://www.w3.org/1999/xlink" xml:space="preserve" xmlns:serif="http://www.serif.com/" style="fill-rule:evenodd;clip-rule:evenodd;">
    <g transform="matrix(1,0,0,1,-338.508,-13.6998)">
        <path d="M582.426,45.427L597.351,68.367C613.351,92.976 606.3,126.167 581.718,142.168L451.418,226.901C426.837,242.902 393.618,235.85 377.645,211.269L362.721,188.301C346.72,163.719 353.743,130.5 378.353,114.528L508.625,29.795C533.234,13.794 566.425,20.846 582.426,45.427Z" style="fill:rgb(250,157,5);"/>
        <path d="M588.345,41.576L603.269,64.543C612.332,78.477 614.881,94.846 611.68,109.968C608.452,125.091 599.503,139.025 585.57,148.087L455.27,232.82C441.337,241.882 424.968,244.431 409.845,241.231C394.977,238.059 381.27,229.365 372.208,215.856L372.179,215.828L356.773,192.153C347.711,178.219 345.191,161.85 348.391,146.728C351.591,131.576 360.54,117.671 374.502,108.609L504.773,23.876C518.735,14.814 535.075,12.265 550.226,15.465C565.349,18.665 579.283,27.643 588.345,41.576ZM591.432,72.218L576.507,49.279C569.569,38.631 558.892,31.777 547.281,29.313C535.67,26.85 523.124,28.775 512.476,35.714L382.176,120.447C371.528,127.357 364.675,138.033 362.239,149.645C359.775,161.256 361.701,173.801 368.639,184.45L383.564,207.417C390.474,218.065 401.151,224.919 412.762,227.383C424.373,229.846 436.919,227.892 447.567,220.982L577.867,136.249C588.515,129.311 595.368,118.634 597.832,107.023C600.296,95.412 598.342,82.895 591.432,72.218Z" style="fill-rule:nonzero;stroke:rgb(250,157,5);stroke-width:0.22px;"/>
        <path d="M605.535,40.528L611.199,49.251C617.288,58.625 614.626,71.255 605.252,77.344L382.629,222.115C373.256,228.204 360.625,225.542 354.536,216.168L348.844,207.445C342.755,198.071 345.446,185.441 354.791,179.352L577.442,34.553C586.787,28.464 599.446,31.154 605.535,40.528Z" style="fill:rgb(227,30,36);"/>
        <path d="M611.454,36.677L617.118,45.399C621.253,51.743 622.385,59.134 620.941,65.988C619.497,72.841 615.419,79.156 609.103,83.263L386.481,228.062C380.137,232.169 372.746,233.33 365.892,231.857C359.039,230.413 352.724,226.335 348.617,220.019L342.925,211.269C338.819,204.953 337.658,197.533 339.102,190.68C340.49,184.11 344.284,178.049 350.175,173.943L350.232,173.886C424.684,125.459 499.137,77.061 573.59,28.634C579.906,24.527 587.325,23.366 594.179,24.811C600.749,26.227 606.809,30.021 610.916,35.912L610.972,35.94L611.454,36.677ZM605.28,53.102L599.588,44.351C597.634,41.321 594.575,39.367 591.234,38.659C587.92,37.951 584.323,38.517 581.293,40.471C507.378,89.097 432.812,137.014 358.643,185.271C355.612,187.225 353.658,190.283 352.95,193.625C352.242,196.967 352.78,200.535 354.763,203.566L360.455,212.316C362.437,215.375 365.496,217.329 368.809,218.037C372.151,218.717 375.748,218.179 378.778,216.196L601.4,71.425C604.431,69.443 606.385,66.384 607.093,63.071C607.801,59.729 607.263,56.132 605.28,53.102Z" style="fill-rule:nonzero;"/>
    </g>
</svg>
